<?xml version="1.0" encoding="utf-8"?>
<!-- Generator: Adobe Illustrator 22.0.0, SVG Export Plug-In . SVG Version: 6.00 Build 0)  -->
<svg version="1.1" id="Layer_1" xmlns="http://www.w3.org/2000/svg" xmlns:xlink="http://www.w3.org/1999/xlink" x="0px" y="0px"
	 viewBox="0 0 512 512" style="enable-background:new 0 0 512 512;" xml:space="preserve">
<style type="text/css">
	.st0{fill:#563D7C;}
	.st1{fill:#FFFFFF;}
</style>
<rect x="0" class="st0" width="512" height="512"/>
<rect x="34" y="66.1" class="st1" width="432" height="372.9"/>
<g>
	<path class="st0" d="M320.9,285.8c-8.8-8-21.2-11.9-37-11.9h-92.5v93.4h92.5c15.8,0,28.3-4.1,37-12.3c8.8-8.3,13.2-19.9,13.2-35
		C334.1,305.1,329.8,293.9,320.9,285.8z"/>
	<path class="st0" d="M308.1,225.8c8.4-7.1,12.6-17.4,12.6-30.8c0-15.1-3.8-25.6-11.3-31.8c-7.6-6.2-18.4-9.2-32.6-9.2h-85.3v82.4
		h85.2C289.3,236.4,299.7,232.9,308.1,225.8z"/>
	<path class="st0" d="M426.7,0H85.3C38.4,0,0,38.4,0,85.3v341.4C0,473.6,38.4,512,85.3,512h341.4c46.9,0,85.3-38.4,85.3-85.3V85.3
		C512,38.4,473.6,0,426.7,0z M379.9,359.5c-4.2,10.2-10.6,19.1-19.6,26.3c-9,7.3-20.3,13.2-34.3,17.5s-30.5,6.6-49.7,6.6H139.2
		V111.3h145c26.8,0,48.3,6.2,64.4,18.4c16.1,12.3,24.2,30.8,24.2,55.6c0,15.1-3.6,27.9-11.1,38.7c-7.4,10.6-17.9,19.1-31.7,24.9v0.8
		c18.4,3.9,32.4,12.6,41.9,26.1c9.4,13.6,14.3,30.4,14.3,50.9C386.2,338.5,384.1,349.4,379.9,359.5z"/>
</g>
</svg>
