<svg xmlns="http://www.w3.org/2000/svg" viewBox="0 0 664.738 664.959">
  <defs>
    <style>
      .cls-1 {
        fill: #f05133;
      }

      .cls-2 {
        fill: #fff;
      }
    </style>
  </defs>
  <g id="Group_2" data-name="Group 2" transform="translate(-858 -536)">
    <g id="git" transform="translate(858 536)">
      <rect id="Rectangle_1" data-name="Rectangle 1" class="cls-1" width="664.516" height="664.516" transform="translate(0.222 0.222)"/>
      <rect id="Rectangle_2" data-name="Rectangle 2" class="cls-2" width="407.127" height="407.127" transform="translate(22.8 293.787) rotate(-45)"/>
      <g id="Group_1" data-name="Group 1">
        <path id="Path_1" data-name="Path 1" class="cls-1" d="M652.283,302.748,362.111,12.576a42.782,42.782,0,0,0-60.692,0L241.169,72.825l76.641,76.641c17.72-6.2,38.1-1.772,52.275,11.961a51.019,51.019,0,0,1,11.961,52.718l73.54,73.54a50.929,50.929,0,1,1-30.568,28.8l-68.667-68.667V428.563a46.716,46.716,0,0,1,13.29,9.746,51.061,51.061,0,1,1-72.211,0,52.926,52.926,0,0,1,16.834-11.075V244.713a52.926,52.926,0,0,1-16.834-11.075,51.519,51.519,0,0,1-11.075-55.819l-75.312-75.312L12.576,301.419a42.782,42.782,0,0,0,0,60.693L302.748,652.283a42.782,42.782,0,0,0,60.692,0L652.283,363.44A43.6,43.6,0,0,0,652.283,302.748Z" transform="translate(0.05 0.05)"/>
      </g>
    </g>
  </g>
</svg>
