<?xml version="1.0" encoding="utf-8"?>
<!-- Generator: Adobe Illustrator 22.0.0, SVG Export Plug-In . SVG Version: 6.00 Build 0)  -->
<svg version="1.1"
	 id="Layer_1" xmlns:cc="http://creativecommons.org/ns#" xmlns:dc="http://purl.org/dc/elements/1.1/" xmlns:inkscape="http://www.inkscape.org/namespaces/inkscape" xmlns:rdf="http://www.w3.org/1999/02/22-rdf-syntax-ns#" xmlns:sodipodi="http://sodipodi.sourceforge.net/DTD/sodipodi-0.dtd" xmlns:svg="http://www.w3.org/2000/svg"
	 xmlns="http://www.w3.org/2000/svg" xmlns:xlink="http://www.w3.org/1999/xlink" x="0px" y="0px" viewBox="0 0 512 512"
	 style="enable-background:new 0 0 512 512;" xml:space="preserve">
<style type="text/css">
	.st0{fill:#E54D26;}
	.st1{fill:#FFFFFF;}
</style>
<g id="g6983" transform="translate(1.5e-5,0)">
	<path id="rect2984" class="st0" d="M64,0h384c35.3,0,64,28.7,64,64v384c0,35.3-28.7,64-64,64H64c-35.3,0-64-28.7-64-64V64
		C0,28.7,28.7,0,64,0z"/>
	<g id="g3372" transform="matrix(15.99685,0,0,15.99685,-5338.7915,-6028.4756)">
		<g id="g3368" transform="translate(0.44642857,-0.04464286)">
			<path id="path3366" class="st0" d="M355.8,380.4C355.8,380.4,355.8,380.5,355.8,380.4c-0.7,1.2-0.8,2.7-1.1,4c0,0,0,0,0,0
				c0,0,0,0,0,0.1c-0.1,1.4-0.6,2.9-0.3,4.3c0,0,0,0.1,0,0.1c0,0,0,0,0,0c0,0,0,0,0,0c0,0,0,0,0,0c0.1,0.1,0.2,0.2,0.2,0.2
				c0,0,0.1,0,0.3-0.1c0.2-0.1,0.2-0.3,0.3-0.6c0,0,0-0.1,0.1-0.1c0,0,0,0,0,0c0,0,0-0.1,0-0.1c0,0,0,0,0,0c0.6-2.4,1-4.9,0.8-7.3
				c0-0.1,0-0.2-0.2-0.3c-0.1-0.1-0.1-0.1-0.2-0.2C355.9,380.4,356,380.4,355.8,380.4C355.9,380.4,355.9,380.4,355.8,380.4
				C355.8,380.4,355.9,380.4,355.8,380.4L355.8,380.4z"/>
			<path id="path3364" class="st0" d="M361.4,381.6c-1,0.5-1.6,1.7-2.3,2.7c0,0,0,0.1,0,0.1c0,0,0,0,0,0.1c-0.9,1.6-2.1,3.2-2.2,5.1
				c0,0,0,0,0,0c0,0.3,0.2,0.4,0.3,0.5c0.2,0,0.5-0.1,0.6-0.3c0,0,0,0,0,0c0,0,0,0,0,0c0,0,0,0,0,0c1.6-2.3,2.9-4.9,3.9-7.5
				c0,0,0,0,0,0c0.1-0.2,0.1-0.2,0-0.3C361.7,381.7,361.5,381.6,361.4,381.6C361.4,381.6,361.4,381.6,361.4,381.6L361.4,381.6z"/>
		</g>
		<path id="path3302" class="st0" d="M345.7,382.3c-0.2,0-0.4,0.2-0.6,0.3c-0.6,0.2-1,0.8-1.1,1.4c-0.2,0.6-0.1,1.4,0,2.1
			c0.1,0.7,0.2,1.5,0.4,2.1c0.1,0.5,0.2,0.7,0.3,0.9v0.1c0,0.1,0,0-0.1,0.1c0,0,0,0.1,0,0.1c0,0-0.1,0.1-0.2,0.1
			c-0.1,0-0.2,0-0.3-0.1c-0.1,0-0.2-0.1-0.2-0.1c0,0-0.1,0-0.1-0.1c0,0,0,0,0,0c0,0-0.1-0.2-0.1-0.3c-0.1-0.2-0.2-0.4-0.3-0.7
			c-0.2-0.6-0.6-1.2-0.9-1.9c-0.3-0.6-0.8-1.2-1.2-1.6c-0.2-0.2-0.5-0.4-0.8-0.5c-0.3-0.1-0.6,0-0.8,0.1c-0.7,0.4-1.1,1-1.3,1.7
			c-0.2,0.7-0.1,1.4,0,2.1c0.1,0.7,0.3,1.2,0.4,1.7c0,0.2,0.1,0.4,0.1,0.5c0,0.1,0,0.3-0.1,0.4c-0.1,0.4-0.4,1.1-0.4,1.1
			c0,0-5.5,14.5,6.3,13.5c0.1,0,0.3-0.1,0.4-0.1c2.3-0.5,4.5-1.2,6.4-1.9c0.4-0.2,0.9-0.4,1.4-0.6c1.1-0.5,2.5-1.2,3.9-1.9
			c1.4-0.7,2.6-1.5,3.6-2.4c1-0.8,1.7-1.8,1.5-2.7c-0.2-1.5-1.2-2.6-2.5-3.4c-1.3-0.9-3-1.4-4.6-1.9c-1.6-0.4-3.2-0.8-4.4-1
			c-0.6-0.1-1.2-0.1-1.5-0.2c-0.1,0-0.2,0-0.2-0.1c0,0,0,0-0.1,0c0,0-0.1,0-0.1-0.1c0,0,0-0.1,0-0.1c0,0,0,0,0-0.1V388
			c0-0.7-0.1-1.7-0.2-2.7c-0.2-0.9-0.4-1.8-0.9-2.4c-0.3-0.4-0.7-0.6-1.3-0.6C346,382.3,345.8,382.2,345.7,382.3L345.7,382.3z"/>
	</g>
</g>
<rect x="0" y="0" class="st0" width="512" height="512"/>
<path id="polygon9-62-1-2" class="st1" d="M79.7,56l32.1,360l144,40l144.4-40l32.1-360L79.7,56z M145.3,129.6
	c73.7,0,147.4,0,221.2,0l-1.1,11.9l-2,22.4l-0.9,9.9h-0.2c-56.3,0-112.5,0-168.8,0l4,45.2c49.7,0,99.3,0,149,0h11.9l-1.1,11.9
	L347,347l-0.6,7.5l-90.5,25.1l-0.1,0l-90.5-25.1l-6.2-69.3h20.4h23.9l3.2,35.2l49.2,13.3l0.2-0.1v0l49.1-13.3l5.1-57.2
	c-51,0-102,0-153,0l-10.8-121.7L145.3,129.6z"/>
</svg>
